<svg id="Layer_1" data-name="Layer 1" xmlns="http://www.w3.org/2000/svg" viewBox="0 0 150 100"><defs><style>.cls-1{fill:#a42a22;}</style></defs><title>value5</title><path class="cls-1" d="M110.59,95.49c-2.14.66-4.28,1.87-6.43,1.89q-25,.24-50,0c-1.91,0-3.82-1.27-5.73-1.95a40.72,40.72,0,0,1,2.79-5.75,34.34,34.34,0,0,1,4.17-4.28c5.44-5.52,6.34-8.56,4.85-17.18H51c-3.46,0-5.25-1.69-5.3-5.16,0-2.17,0-4.33,0-6.5V49.86a20.29,20.29,0,0,0-3.05-.6c-3.15-.12-4-2-2.5-4.28,4.09-6,4.72-12.86,6.13-19.71C48.57,14.18,55.71,6.84,66.86,3.78c1.27-.35,2.49-.85,3.73-1.28h7c1.23.43,2.43,1,3.68,1.29C99.57,8.5,108.16,29.63,98.59,46c-5.83,10-4.73,20.56-.16,30.34,2.79,6,8,10.82,12.16,16.17ZM70.12,26.23c-2.61,3.15-8.25-1.81-8.82,4.66-.68,7.74,6.25,2.88,8.85,5.62.14,2.19.31,4.59.46,6.91h7.06c.14-2.73.27-5,.35-6.57,2.62-3.26,8.73,1.82,8.88-5.2.17-7.37-6.38-2.27-8.86-5.28-.14-2.22-.3-4.78-.45-7.22C70.73,18,70.73,18,70.12,26.23Z"/></svg>