<svg id="Layer_1" data-name="Layer 1" xmlns="http://www.w3.org/2000/svg" viewBox="0 0 150 100"><defs><style>.cls-1{fill:#a42a22;}</style></defs><title>value3</title><path class="cls-1" d="M41.47,60.32c-1.68,7.59,1.15,15.77-2.77,23.19-3.48-12.07-1.06-24.44-3.17-36.83L30.06,59.79c-2.93-5.44,4.57-21.13,9.36-22.15-1-3.68-2.5-7.32-2.83-11.06-.31-3.43,2.22-5.28,5.72-5.54a28.13,28.13,0,0,0,3.84-.61c1.59-.34,3.16-.79,4.73-1.19a31.3,31.3,0,0,1,1.11,5,6.47,6.47,0,0,1-1.24,4.68l-6.08,7.6c2.08,1.54,4.7,2.48,5.51,4.25,2.64,5.76,4.61,11.81,6.85,17.75l-2,.89c-.94-2.08-1.9-4.15-2.82-6.24s-1.92-4.43-2.88-6.64L48,46.69c0,6.17,0,12.34,0,18.51s.19,12.2-.16,18.25l-2.41.08a23.59,23.59,0,0,1-1.1-4.65c-.15-4.82,0-9.65-.12-14.47a20.14,20.14,0,0,0-1.2-4.5Z"/><path class="cls-1" d="M118.82,59.46l-5.46-12.91-.84.05a27.55,27.55,0,0,0-.45,3.46c0,9.49,0,19-.08,28.47a8.6,8.6,0,0,1-1.81,5c-3.6-7.55-.23-16-2.79-23.47l-2.4.12v9.38c0,3.33.16,6.68-.08,10-.1,1.44-1,2.83-1.58,4.24l-2-.35V47.09l-1.81-.33c-1.74,4.21-3.47,8.42-5.36,13-3-5.26,4.51-21.11,9.73-22.18-1.28-3.31-2.69-6.61-3.76-10a5.83,5.83,0,0,1,.46-3.69,46.56,46.56,0,0,1,3-5.38c1.33-2.26,3.1-3.06,5.27-1.15,3.12,2.74,5,10.75,3.36,14.56-.82,1.86-2.26,3.45-2,4.55,1.83,2.45,4.07,4.71,5.4,7.41a115.27,115.27,0,0,1,4.61,12.06,14.72,14.72,0,0,1,.46,2.91Z"/><path class="cls-1" d="M69.1,83.27V47.12l-1.5-.33c-1.85,4.23-3.7,8.45-5.84,13.36-2.14-6.65,4.83-21,10.79-23.28-3.15-4.44-8.58-9-2-14.24,1.86-1.5,6.92-2.11,8-.88,4.71,5.21,3,10.57-3.39,15.7C81.89,37.28,82.7,41.34,84,45c1.65,4.52,3.37,9,5.06,13.51l-2,.91-6-12.89c-1.82,12.39-.1,24.76-2.7,36.91C74.49,76,78,67.51,75.42,60H73.73a18.54,18.54,0,0,0-.71,3.4c-.08,5.16.07,10.33-.1,15.49-.06,1.62-.88,3.2-1.36,4.8Z"/></svg>