<svg id="Layer_1" data-name="Layer 1" xmlns="http://www.w3.org/2000/svg" viewBox="0 0 150 100"><defs><style>.cls-1{fill:#a42a22;}</style></defs><title>value1</title><path class="cls-1" d="M37.47,77,62,41.15c2.94,2.3,5.78,4.25,8.31,6.56s4.51,2.15,7,.15c3-2.39,6.07-4.56,9-6.75.54.27.94.34,1.11.57,6,8.35,6,8.34-.66,16.11C82.05,63.33,77.41,69,72.58,74.45c-1,1.13-2.58,2.42-3.91,2.45C58.61,77.1,48.54,77,37.47,77Z"/><path class="cls-1" d="M107.57,42,138,76.76H77.48Z"/><path class="cls-1" d="M45.08,39l6.65,7.86c-6.51,9.55-13,19.12-19.59,28.58A4.69,4.69,0,0,1,28.84,77C23.7,77.11,18.56,77,12,77,23.39,64,34,51.69,45.08,39Z"/><path class="cls-1" d="M84,36.42,73.86,43.91l-8.81-7.27L74.61,23Z"/></svg>