<svg id="Layer_1" data-name="Layer 1" xmlns="http://www.w3.org/2000/svg" viewBox="0 0 150 100"><defs><style>.cls-1{fill:#a42a22;}</style></defs><title>value4</title><path class="cls-1" d="M90.15,73.56H59.91C56,66.23,52.09,59.4,48.55,52.4,42.62,40.65,44.75,28.18,54,19a29.93,29.93,0,0,1,34.07-5.67c11.35,5.53,18.27,17.57,16.54,29.78-.51,3.67-2.2,7.28-3.88,10.66C97.52,60.25,93.94,66.52,90.15,73.56ZM59.34,48.23H73.56L70.92,67.45l1.29.43c5.9-9.7,11.79-19.41,18.41-30.3H76.52c.92-6.79,1.75-13,2.59-19.23l-1.29-.43Z"/><path class="cls-1" d="M93.28,79.79c-1.54,1.46-2.89,3.22-4.65,4.32-2.54,1.58-5.44,2.58-8.08,4a10,10,0,0,1-11.22-.44,25.32,25.32,0,0,0-6.79-3.11c-3.17-.92-5.17-2.24-3.95-6h33.7Z"/><path class="cls-1" d="M113,59.19l-6.35-5.53,2-2,5.16,6.74Z"/><path class="cls-1" d="M39.11,37.47H30.83c0-.52,0-1-.08-1.55l8.33-.45Z"/><path class="cls-1" d="M110.83,36h8.41v1.19h-8.41C110.84,36.83,110.84,36.43,110.83,36Z"/><path class="cls-1" d="M35.54,57.45l5.79-5.82,2.1,2.06q-3.32,2.49-6.61,5Z"/><path class="cls-1" d="M114.44,15.62q-3,2.93-6,5.83L107,20.08l5.73-6Z"/></svg>