<svg id="Layer_1" data-name="Layer 1" xmlns="http://www.w3.org/2000/svg" viewBox="0 0 150 100"><defs><style>.cls-1{fill:#a42a22;}</style></defs><title>value2</title><path class="cls-1" d="M69.65,74.75c1.89-8.18-1.32-13.42-7.47-17.92C55.26,51.76,48,46.65,42.6,40.16,39,35.79,37.92,29.09,36.27,23.27c-1-3.42,1.09-5.28,4.76-5.11,2,.1,4-.1,6,0a13.51,13.51,0,0,0,10.35-3.33c8.58-7.06,28.77-5.95,37,1.23a11.13,11.13,0,0,0,4.71,2,20.26,20.26,0,0,0,4.48.07c11.1,0,11.68.83,9.09,11.64-2.24,9.37-8.39,15.63-15.92,20.91-3.4,2.39-6.69,4.94-10.16,7.21-6.06,4-7.8,9.54-6.68,16.4,3.53,1.2,7.12,2,10.31,3.59,4.8,2.4,4.9,6.11,0,8.38a35,35,0,0,1-30.81,0c-4.7-2.22-4.42-5.92.29-8.46A28.77,28.77,0,0,1,64.86,76C66.43,75.53,68,75.17,69.65,74.75Zm5.06-44.7c4.89-1.55,9.77-2.57,14.15-4.65,3.87-1.84,3.61-4.72,0-7.15-6.73-4.58-21.59-4.49-28,.17-3.25,2.35-3.44,5.25.11,6.92C65.23,27.33,69.9,28.45,74.71,30.05Zm33.38-5.93H97.34c-1.47,7.54-2.85,14.6-4.34,22.26C101.73,41.29,106.93,34.48,108.09,24.12ZM57,46.48c-1.54-8.11-2.89-15.17-4.24-22.28H42.05C42.89,34.48,48.46,40.93,57,46.48Z"/></svg>